<svg xmlns="http://www.w3.org/2000/svg" xmlns:xlink="http://www.w3.org/1999/xlink" width="500" zoomAndPan="magnify" viewBox="0 0 375 374.999991" height="500" preserveAspectRatio="xMidYMid meet" version="1.0"><defs><clipPath id="0822266dee"><path d="M 4.210938 49 L 370.960938 49 L 370.960938 326 L 4.210938 326 Z M 4.210938 49 " clip-rule="nonzero"/></clipPath></defs><g clip-path="url(#0822266dee)"><path fill="#1e3f48" d="M 366.933594 225.84375 C 361.832031 227.117188 356.59375 227.207031 351.386719 227.503906 C 343.347656 227.96875 335.328125 228.566406 327.394531 230.039062 C 326.113281 230.277344 325.324219 230.808594 324.5 231.804688 C 314.351562 244.074219 306.285156 257.816406 297.039062 270.726562 C 286.207031 285.851562 275.304688 300.921875 264.035156 315.726562 C 261.679688 318.824219 260.070312 322.53125 256.46875 324.582031 C 254.433594 325.738281 252.46875 326.265625 249.992188 325.863281 C 220.980469 321.136719 192.113281 315.550781 162.929688 311.875 C 146.183594 309.765625 129.734375 305.84375 113.074219 303.175781 C 100.070312 301.09375 86.917969 299.839844 74.085938 296.847656 C 62.875 294.234375 51.910156 290.550781 40.664062 288.136719 C 31.480469 286.167969 22.691406 283.09375 13.773438 280.355469 C 11.933594 279.789062 10.550781 278.617188 10.445312 276.730469 C 10.097656 270.292969 7.035156 264.621094 5.539062 258.511719 C 4.226562 253.128906 4.429688 248.09375 8.640625 243.992188 C 15.960938 236.867188 21.589844 228.457031 27.277344 220.070312 C 28.617188 218.09375 30.070312 216.144531 31.730469 214.433594 C 45.039062 200.734375 55.167969 184.398438 68.210938 170.46875 C 70.933594 167.5625 72.835938 163.890625 75.167969 160.605469 C 76.414062 158.847656 76.558594 157.226562 75.578125 155.1875 C 73.558594 150.972656 72.035156 146.550781 70.820312 142.03125 C 69.667969 137.742188 70.867188 135.792969 75.144531 134.960938 C 82.785156 133.480469 82.648438 133.464844 83.59375 124.972656 C 84.066406 120.71875 83.78125 116.265625 86.300781 112.363281 C 87.039062 111.21875 87.765625 110.339844 88.902344 109.640625 C 99.667969 103.007812 111.585938 99.867188 123.929688 97.957031 C 130.839844 96.886719 137.761719 96.222656 143.40625 96.558594 C 158.316406 96.4375 171.71875 97.488281 184.582031 102.195312 C 185.910156 102.679688 186.371094 102.304688 186.742188 101.246094 C 188.015625 97.609375 190.734375 95.097656 193.398438 92.503906 C 195.582031 90.378906 197.644531 88.121094 199.667969 85.839844 C 204.089844 80.851562 208.761719 76.273438 214.636719 72.847656 C 221.855469 68.632812 228.421875 63.402344 235.964844 59.589844 C 245.203125 54.921875 255.113281 53.277344 265.066406 51.503906 C 272.355469 50.207031 279.710938 49.3125 287.101562 49.046875 C 295.300781 48.75 297.242188 50.089844 300.300781 56.96875 C 302.816406 62.628906 304.792969 68.523438 307.28125 74.195312 C 315.996094 94.042969 326.25 113.105469 337.359375 131.699219 C 341.957031 139.390625 344.953125 147.832031 349.125 155.722656 C 352.28125 161.683594 355.410156 167.640625 358.757812 173.503906 C 362.457031 179.976562 362.371094 179.753906 355.582031 183.320312 C 353.378906 184.480469 352.839844 184.988281 354.628906 186.988281 C 357.3125 189.984375 359.65625 193.285156 362.273438 196.347656 C 364.734375 199.230469 365.242188 202.527344 364.652344 206.074219 C 364.167969 209.011719 364.488281 211.582031 366.492188 214.007812 C 368.074219 215.921875 369.230469 218.210938 369.972656 220.617188 C 370.820312 223.394531 369.769531 225.136719 366.933594 225.84375 Z M 366.933594 225.84375 " fill-opacity="1" fill-rule="nonzero"/></g><path fill="#767fa7" d="M 363.914062 216.808594 C 366.605469 221.597656 367.996094 222.558594 361.644531 223.292969 C 358.082031 223.707031 354.492188 224.074219 350.910156 224.105469 C 332.433594 224.269531 314.800781 228.5 297.351562 234.257812 C 283.414062 238.859375 269.703125 243.929688 256.5 250.328125 C 251.484375 252.761719 246.222656 251.296875 240.398438 251.902344 C 227.035156 250.582031 213.003906 251.570312 199 252.507812 C 186.324219 253.359375 173.769531 255.464844 161.175781 257.15625 C 151.238281 258.492188 141.5625 260.769531 131.847656 263.054688 C 126.402344 264.335938 125.773438 263.761719 124.203125 258.597656 C 121.984375 251.3125 119.210938 244.210938 115.539062 237.550781 C 109.476562 226.5625 106.484375 214.265625 100.804688 203.171875 C 91.882812 185.734375 86.152344 166.933594 77.355469 149.457031 C 76.042969 146.855469 75.339844 143.949219 74.171875 141.265625 C 73.488281 139.691406 73.96875 139.0625 75.472656 138.800781 C 77.074219 138.519531 78.675781 138.222656 80.28125 137.941406 C 81.371094 137.746094 81.917969 137.96875 82.347656 139.257812 C 83.914062 143.984375 85.820312 148.601562 87.445312 153.3125 C 91.347656 164.617188 96.894531 175.183594 102.082031 185.90625 C 104.359375 190.609375 105.058594 195.824219 107.382812 200.539062 C 112.558594 211.039062 117.457031 221.664062 121.421875 232.714844 C 123.476562 238.429688 124.734375 244.40625 127.320312 249.945312 C 129.035156 253.609375 129.9375 254.300781 134.21875 253.546875 C 138.925781 252.71875 143.601562 251.738281 148.285156 250.792969 C 170.066406 246.390625 191.917969 242.621094 214.257812 242.722656 C 224.148438 242.769531 233.675781 245.011719 243.195312 247.277344 C 246.699219 248.113281 249.84375 247.898438 252.835938 245.859375 C 265.589844 237.164062 279.597656 231.035156 294.101562 226 C 306.238281 221.785156 318.675781 218.679688 331.488281 217.347656 C 336.136719 216.863281 340.832031 216.804688 345.507812 216.558594 C 351.035156 216.269531 356.617188 217.226562 362.09375 215.914062 C 363.089844 215.675781 363.523438 216.109375 363.914062 216.808594 Z M 363.914062 216.808594 " fill-opacity="1" fill-rule="nonzero"/><path fill="#ede5c9" d="M 29.890625 251.914062 C 23.621094 250.316406 17.132812 249.570312 10.644531 248.449219 C 33.648438 219.507812 56.402344 190.878906 79.113281 162.300781 C 81.707031 167.261719 83.597656 173.046875 85.933594 178.640625 C 86.285156 179.488281 85.964844 180.042969 85.523438 180.71875 C 70.5625 203.777344 54.824219 226.292969 38.503906 248.410156 C 36.203125 251.53125 34.054688 252.976562 29.890625 251.914062 Z M 275.8125 245.753906 C 269.242188 248.277344 262.691406 250.84375 256.101562 253.3125 C 252.230469 254.765625 248.214844 256.082031 244.070312 255.480469 C 241.582031 255.117188 240.585938 256.105469 239.527344 257.953125 C 233.804688 267.933594 225.1875 272.492188 213.699219 271.378906 C 208.414062 270.867188 203.765625 268.363281 198.957031 266.375 C 195.472656 264.9375 192.78125 262.464844 191.230469 259.179688 C 190.191406 256.972656 188.894531 256.769531 186.941406 256.980469 C 173.871094 258.378906 160.945312 260.765625 147.953125 262.710938 C 141.644531 263.65625 135.71875 266.558594 129.148438 266.324219 C 123.546875 266.128906 122.59375 265.527344 121.054688 260.324219 C 119.484375 255.007812 117.40625 249.882812 115.191406 244.8125 C 110.851562 234.878906 105.648438 225.355469 102.128906 215.019531 C 99.953125 208.625 97.179688 202.335938 93.835938 196.425781 C 79.230469 215.453125 70.464844 238.136719 54.207031 256.058594 C 61.523438 257.667969 68.429688 259.054688 75.269531 260.71875 C 87.472656 263.6875 99.429688 267.601562 111.765625 270.082031 C 125.199219 272.78125 138.832031 273.898438 152.417969 275.429688 C 167.195312 277.09375 182.039062 278.113281 196.742188 280.496094 C 206.484375 282.078125 216.4375 282.273438 226.085938 284.515625 C 231.816406 285.847656 237.574219 286.726562 243.445312 287.101562 C 245.058594 287.207031 245.738281 286.773438 246.511719 285.542969 C 248.242188 282.78125 249.972656 279.992188 251.988281 277.441406 C 260.152344 267.109375 268.421875 256.863281 276.652344 246.585938 C 277.398438 246.175781 277.984375 245.617188 278.371094 244.742188 C 277.324219 244.722656 276.503906 245.0625 275.8125 245.753906 Z M 275.8125 245.753906 " fill-opacity="1" fill-rule="nonzero"/><path fill="#8f6651" d="M 311.851562 235.460938 C 305.679688 244.675781 299.492188 253.890625 292.859375 262.769531 C 287.914062 269.386719 281.914062 275.222656 277.035156 281.886719 C 272.011719 288.742188 265.957031 294.757812 261.355469 301.9375 C 259.070312 305.5 256.34375 308.785156 253.753906 312.148438 C 252.957031 313.183594 251.953125 314.195312 250.449219 313.824219 C 248.945312 313.449219 248.652344 312.132812 248.386719 310.804688 C 247.199219 304.957031 245.863281 299.136719 244.816406 293.265625 C 244.359375 290.695312 243.484375 289.414062 240.621094 289.753906 C 238.589844 289.996094 236.421875 289.964844 234.433594 289.519531 C 222.859375 286.90625 211.054688 285.910156 199.351562 284.1875 C 179.65625 281.289062 159.859375 279.441406 140.085938 277.40625 C 121.433594 275.488281 103.1875 271.886719 85.292969 266.425781 C 74.945312 263.265625 64.359375 261.269531 53.632812 259.132812 C 54.976562 268.289062 56.257812 277.144531 57.585938 285.996094 C 57.839844 287.699219 58.570312 288.789062 60.585938 289.1875 C 64.734375 290.011719 68.765625 291.394531 72.902344 292.28125 C 85.890625 295.0625 99.09375 296.527344 112.207031 298.550781 C 130.375 301.351562 148.3125 305.589844 166.570312 307.796875 C 194.460938 311.175781 222.039062 316.46875 249.699219 321.214844 C 254.300781 322.003906 256.582031 320.476562 258.777344 317.148438 C 262.617188 311.332031 266.515625 305.566406 271.117188 300.296875 C 277.367188 293.140625 282.089844 284.890625 287.539062 277.15625 C 297.75 262.65625 308.152344 248.285156 318.472656 233.859375 C 318.785156 233.421875 319.183594 233.015625 318.890625 232.222656 C 316.003906 232.058594 313.707031 232.691406 311.851562 235.460938 Z M 233.621094 306.5625 C 232.617188 308.03125 232.957031 310.675781 230.367188 310.394531 C 226.867188 309.914062 223.546875 309.757812 220.464844 309.085938 C 217.277344 308.386719 215.148438 305.238281 212.945312 302.730469 C 212.738281 302.492188 212.792969 301.894531 212.90625 301.519531 C 213.394531 299.949219 218.738281 296.664062 220.425781 296.761719 C 223.234375 296.921875 225.964844 297.761719 228.824219 297.5625 C 231.445312 297.382812 232.15625 300.054688 233.847656 301.285156 C 236.210938 303.003906 234.835938 304.785156 233.621094 306.5625 Z M 41.449219 278.761719 C 42.027344 280.464844 42.339844 282.257812 42.84375 284.273438 C 35.089844 282.898438 27.894531 280.847656 20.734375 278.195312 C 16.171875 276.507812 13.902344 274.585938 13.371094 269.683594 C 12.972656 265.976562 11.222656 262.414062 10.085938 258.785156 C 9.828125 257.957031 9.597656 257.113281 9.398438 256.269531 C 8.089844 250.648438 8.433594 250.355469 13.867188 251.503906 C 19.910156 252.773438 25.988281 253.890625 32.066406 254.984375 C 33.265625 255.199219 34.089844 255.515625 34.421875 256.792969 C 36.351562 264.246094 38.964844 271.484375 41.449219 278.761719 Z M 193.179688 256.363281 C 207.519531 255.589844 221.511719 254.71875 235.894531 255.214844 C 230.753906 265.457031 220.207031 269.621094 208.871094 265.835938 C 204.890625 264.507812 200.660156 263.609375 197.183594 261.023438 C 195.707031 259.925781 194.375 258.644531 193.179688 256.363281 Z M 163.773438 168.914062 C 167.992188 180.035156 172.277344 191.132812 176.5625 202.308594 C 172.929688 203.789062 169.273438 202.882812 165.777344 203.5 C 160.1875 204.488281 154.839844 206.195312 149.824219 208.84375 C 147.964844 209.824219 147.167969 209.546875 146.488281 207.457031 C 143.292969 197.675781 139.855469 187.96875 135.90625 178.460938 C 134.757812 175.695312 133.246094 173.082031 131.9375 170.460938 C 141.113281 167.527344 150.257812 166.097656 159.664062 166.152344 C 161.914062 166.164062 163.019531 166.929688 163.773438 168.914062 Z M 163.773438 168.914062 " fill-opacity="1" fill-rule="nonzero"/><path fill="#e5dad8" d="M 91.816406 125.960938 C 96.4375 138.945312 102.851562 151.191406 107.585938 164.125 C 110.765625 172.808594 114.175781 181.382812 118.90625 189.355469 C 121.585938 193.871094 123.601562 198.640625 125.179688 203.625 C 127.890625 212.199219 131.660156 220.414062 133.742188 229.210938 C 134.179688 231.070312 135.246094 232.785156 135.863281 234.195312 C 171.175781 217.855469 206.933594 215.097656 244.011719 227.882812 C 242.410156 222.683594 240.398438 217.6875 237.882812 212.886719 C 230.566406 198.925781 223.46875 184.851562 215.882812 171.042969 C 208.15625 156.980469 203.695312 141.554688 196.90625 127.109375 C 194.363281 121.699219 191.113281 116.636719 188.832031 111.148438 C 187.363281 107.605469 185.136719 105.9375 181.660156 105.042969 C 161.539062 99.875 141.28125 99.101562 120.847656 102.898438 C 110.089844 104.894531 99.734375 107.96875 90.238281 113.609375 C 88.335938 114.738281 87.929688 115.707031 88.835938 117.734375 C 90.027344 120.386719 90.839844 123.210938 91.816406 125.960938 Z M 177.8125 206.0625 C 168.398438 206.324219 159.347656 208.167969 150.601562 211.753906 C 146.082031 213.609375 145.597656 213.054688 143.636719 208.488281 C 138.550781 196.636719 135.105469 184.140625 129.433594 172.511719 C 127.738281 169.03125 128.476562 168.117188 132.328125 167.320312 C 136.976562 166.363281 141.332031 164.257812 146.132812 163.828125 C 149.476562 163.53125 152.800781 163.050781 156.132812 162.652344 C 156.140625 162.769531 156.144531 162.882812 156.152344 163 C 158.210938 163 160.273438 163.015625 162.332031 162.996094 C 164.898438 162.972656 165.886719 164.714844 166.628906 166.753906 C 169.921875 175.808594 173.203125 184.863281 176.503906 193.910156 C 177.617188 196.957031 178.703125 200.015625 179.945312 203.011719 C 180.90625 205.316406 179.882812 206.007812 177.8125 206.0625 Z M 224.855469 204.894531 C 224.492188 206.652344 222.875 206.125 221.894531 205.878906 C 217.671875 204.835938 213.425781 204.222656 209.09375 203.75 C 204.679688 203.265625 200.429688 203.796875 196.144531 204.351562 C 194.40625 204.578125 192.6875 204.585938 190.957031 204.636719 C 190.046875 204.664062 189.082031 204.484375 189.078125 203.359375 C 189.074219 202.5 189.882812 202.148438 190.675781 202.019531 C 195.371094 201.265625 200.074219 200.523438 204.109375 199.882812 C 210.855469 200.617188 216.914062 201.085938 222.726562 203.015625 C 223.691406 203.339844 225.183594 203.308594 224.855469 204.894531 Z M 216.484375 192.160156 C 217.722656 192.578125 219.339844 192.90625 218.847656 194.613281 C 218.410156 196.140625 216.761719 195.628906 215.71875 195.375 C 209.894531 193.941406 203.90625 193.746094 198.101562 192.765625 C 194.230469 193.242188 190.464844 193.84375 186.652344 193.605469 C 185.800781 193.550781 184.445312 194.035156 184.390625 192.507812 C 184.339844 191.128906 185.757812 191.097656 186.539062 191.042969 C 192.773438 190.59375 198.945312 188.824219 205.277344 190.292969 C 208.964844 191.144531 212.847656 190.929688 216.484375 192.160156 Z M 209.984375 177.347656 C 209.984375 178.378906 209.210938 178.523438 208.410156 178.546875 C 207.648438 178.566406 206.886719 178.550781 205.375 178.550781 C 199.015625 176.808594 192.101562 178.3125 185.164062 179.683594 C 184.046875 179.902344 182.496094 180.160156 182.207031 178.53125 C 181.878906 176.695312 183.402344 176.582031 184.742188 176.394531 C 188.921875 175.820312 193.078125 175.066406 197.273438 174.640625 C 201.089844 174.253906 204.785156 175.628906 208.578125 175.851562 C 209.4375 175.902344 209.988281 176.449219 209.984375 177.347656 Z M 200.625 162.832031 C 202.34375 162.90625 204.082031 163.363281 205.472656 164.527344 C 206.054688 165.011719 206.574219 165.636719 206.097656 166.5 C 205.734375 167.152344 205.101562 167.433594 204.433594 167.214844 C 195.839844 164.386719 186.953125 165.738281 178.191406 165.375 C 177.863281 165.359375 177.535156 165.375 177.210938 165.355469 C 176.289062 165.296875 175.386719 165.042969 175.269531 164 C 175.128906 162.722656 176.199219 162.230469 177.144531 162.195312 C 180.082031 162.078125 183.023438 162.152344 185.023438 162.152344 C 190.886719 161.601562 195.734375 162.632812 200.625 162.832031 Z M 192.757812 147.488281 C 193.976562 147.835938 195.191406 148.335938 194.753906 149.902344 C 194.363281 151.3125 193.023438 151.128906 192.003906 150.875 C 182.253906 148.457031 172.300781 148.617188 162.449219 149.269531 C 149.597656 150.121094 136.597656 150.113281 124.035156 153.628906 C 121.539062 154.328125 119.144531 155.402344 116.652344 156.128906 C 115.796875 156.378906 114.445312 156.636719 114.03125 155.515625 C 113.542969 154.210938 115.015625 154.089844 115.761719 153.695312 C 122.382812 150.195312 129.523438 148.429688 136.921875 147.800781 C 148.277344 146.828125 159.609375 145.328125 172.246094 145.710938 C 177.691406 145.613281 184.328125 145.621094 190.871094 147.019531 C 191.503906 147.152344 192.136719 147.308594 192.757812 147.488281 Z M 189.417969 131.851562 C 189.003906 133.917969 187.125 133.167969 185.621094 132.902344 C 171.183594 130.324219 156.832031 131.738281 142.445312 133.59375 C 132.636719 134.859375 122.9375 136.488281 113.460938 139.332031 C 112.945312 139.488281 112.355469 139.753906 111.894531 139.628906 C 111.140625 139.429688 109.921875 139.585938 109.894531 138.445312 C 109.867188 137.582031 110.824219 137.492188 111.546875 137.210938 C 121.71875 133.222656 132.40625 131.558594 143.132812 129.972656 C 151.320312 128.761719 159.511719 127.882812 168.105469 128.019531 C 174.027344 127.632812 180.1875 128.320312 186.304688 129.394531 C 187.765625 129.652344 189.824219 129.8125 189.417969 131.851562 Z M 107.023438 120.160156 C 113.878906 115.777344 121.742188 114.4375 129.527344 113.101562 C 135.285156 112.113281 141.136719 111.46875 147.027344 111.613281 C 158.8125 111.691406 170.351562 113.65625 181.8125 116.203125 C 183.246094 116.523438 185.050781 116.886719 184.726562 118.578125 C 184.332031 120.625 182.507812 119.972656 180.972656 119.625 C 168.871094 116.882812 156.664062 114.558594 144.210938 115.214844 C 131.945312 115.863281 119.792969 117.527344 108.464844 122.832031 C 107.449219 123.308594 106.136719 124.28125 105.328125 122.796875 C 104.492188 121.269531 106.089844 120.757812 107.023438 120.160156 Z M 358.558594 201.925781 C 359.679688 202.136719 361.082031 201.957031 360.953125 203.839844 C 360.820312 205.820312 359.367188 205.269531 358.296875 205.261719 C 353.722656 205.230469 349.160156 205.210938 344.609375 205.863281 C 322.949219 208.964844 301.203125 211.816406 281.046875 221.039062 C 272.917969 224.757812 264.082031 227.257812 257.34375 233.65625 C 256.296875 234.652344 254.933594 235.335938 254.117188 237.519531 C 287.144531 217.425781 322.75 209.128906 360.640625 208.089844 C 359.769531 213.140625 359.769531 213.195312 354.621094 212.964844 C 327.679688 211.769531 302.25 217.667969 277.664062 228.476562 C 269.050781 232.265625 260.671875 236.335938 253.144531 241.863281 C 248.4375 245.324219 243.792969 244.351562 239.304688 242.824219 C 222.050781 236.949219 204.570312 238.402344 186.96875 240.261719 C 169.082031 242.152344 151.660156 246.347656 134.171875 250.253906 C 133.773438 250.34375 133.335938 250.265625 132.859375 250.265625 C 132.953125 247.632812 134.144531 246.398438 136.605469 245.375 C 149.390625 240.058594 162.519531 236.058594 176.269531 234.320312 C 187.820312 232.859375 199.417969 231.082031 211.070312 232.265625 C 219.683594 233.144531 228.089844 235.4375 236.488281 237.609375 C 239.675781 238.433594 242.851562 239.859375 246.410156 238.691406 C 234.710938 233.929688 222.628906 230.683594 209.992188 229.402344 C 197.199219 228.105469 184.582031 229.988281 172 231.632812 C 159.25 233.296875 147.179688 237.558594 135.414062 243.296875 C 135.15625 240.785156 136.488281 239.390625 138.199219 238.152344 C 144.507812 233.589844 151.910156 231.824219 159.179688 229.542969 C 175.332031 224.480469 191.828125 223.085938 208.5625 224.492188 C 220.917969 225.53125 233.285156 226.910156 244.417969 233.207031 C 246.191406 234.210938 248.046875 234.238281 250.078125 233.609375 C 255.324219 231.984375 259.890625 229.039062 264.683594 226.519531 C 284.652344 216.019531 305.269531 207.199219 327.71875 203.585938 C 336.949219 202.101562 346.28125 201.179688 355.671875 201.5 C 356.636719 201.53125 357.601562 201.746094 358.558594 201.925781 Z M 252.617188 287.96875 C 252.207031 288.585938 251.160156 289.40625 252.359375 290.148438 C 253.335938 290.757812 254.046875 289.859375 254.503906 289.179688 C 257.988281 284.007812 262.472656 279.683594 266.46875 274.945312 C 274.179688 265.796875 282.039062 256.765625 288.632812 246.722656 C 290.410156 244.015625 293.285156 242.164062 295.078125 239.367188 C 295.769531 238.28125 297.210938 238.074219 299.175781 238.023438 C 295.632812 242.921875 292.871094 247.59375 289.390625 251.796875 C 278.640625 264.78125 267.304688 277.28125 257.082031 290.703125 C 255.960938 292.167969 254.992188 293.75 253.996094 295.308594 C 253.5625 295.984375 253.339844 296.910156 254.054688 297.378906 C 254.78125 297.859375 255.511719 297.207031 256.007812 296.617188 C 257.765625 294.535156 259.664062 292.546875 261.183594 290.300781 C 265.46875 283.976562 270.683594 278.390625 275.382812 272.402344 C 281.28125 264.882812 287.804688 257.859375 293.890625 250.476562 C 297.277344 246.367188 300.394531 242.027344 303.480469 237.679688 C 304.878906 235.707031 306.675781 234.960938 308.742188 234.800781 C 291.484375 260.738281 269.808594 283.273438 251.632812 309.289062 C 250.308594 303.101562 249.152344 297.617188 247.957031 292.140625 C 247.597656 290.484375 248.324219 289.257812 249.195312 287.9375 C 254.972656 279.199219 261.722656 271.207031 268.320312 263.113281 C 273.40625 256.875 277.597656 249.960938 283.210938 244.101562 C 285.226562 241.996094 287.457031 241.417969 290.109375 240.542969 C 280.410156 253.574219 270.550781 266.082031 259.917969 277.960938 C 257.140625 281.0625 254.894531 284.523438 252.617188 287.96875 Z M 86.863281 127.089844 C 86.308594 125.210938 86.929688 123.292969 87.464844 121.414062 C 91.246094 135.140625 98.019531 147.605469 102.753906 160.84375 C 106.996094 172.710938 112.136719 184.128906 117.960938 195.34375 C 122.984375 205.015625 126.289062 215.578125 129.238281 226.128906 C 130.210938 229.605469 131.414062 232.925781 133.0625 236.121094 C 133.589844 237.148438 134.632812 238.296875 133.125 240.035156 C 130.335938 232.621094 126.0625 226.226562 123.566406 218.980469 C 121.734375 213.660156 119.6875 208.402344 116.988281 203.484375 C 111.710938 193.875 107.832031 183.691406 104.136719 173.425781 C 101.503906 166.105469 98.148438 159.097656 95.128906 151.945312 C 91.71875 143.859375 89.347656 135.460938 86.863281 127.089844 Z M 86.554688 141.507812 C 85.613281 138.359375 85.289062 135.390625 86.0625 132.046875 C 86.683594 134.070312 87.386719 136.078125 87.910156 138.128906 C 89.742188 145.289062 92.417969 152.164062 95.730469 158.71875 C 100.925781 168.988281 104.265625 179.960938 108.335938 190.644531 C 111.050781 197.777344 115.207031 204.148438 118.117188 211.152344 C 118.773438 212.730469 119.4375 214.339844 119.910156 215.945312 C 122.476562 224.640625 127.378906 232.285156 130.8125 240.585938 C 131.910156 243.238281 132.105469 245.5 130.292969 248.058594 C 127.523438 241.960938 125.953125 235.5625 123.644531 229.441406 C 119.613281 218.761719 114.164062 208.757812 109.707031 198.300781 C 106.609375 191.042969 103.953125 183.605469 100.507812 176.484375 C 95.039062 165.160156 90.164062 153.601562 86.554688 141.507812 Z M 359.910156 198.667969 C 354.117188 198.179688 348.894531 198.230469 343.640625 198.546875 C 325.363281 199.644531 307.851562 203.652344 290.941406 210.738281 C 280.710938 215.023438 270.464844 219.191406 260.953125 224.957031 C 260.390625 225.640625 259.667969 226.042969 258.796875 226.226562 C 258.546875 225.191406 259.292969 225.0625 259.953125 224.859375 C 263.097656 221.808594 266.59375 219.210938 270.503906 217.242188 C 281.574219 211.667969 292.539062 205.859375 303.808594 200.710938 C 313.886719 196.109375 324.769531 193.664062 335.300781 190.273438 C 339.433594 188.941406 343.597656 187.703125 347.695312 186.265625 C 349.175781 185.746094 349.773438 186 350.746094 187.332031 C 353.492188 191.089844 356.578125 194.597656 359.910156 198.667969 Z M 355.09375 175.234375 C 351.546875 169.746094 348.691406 163.875 345.535156 158.167969 C 340.953125 149.878906 337.503906 141.054688 332.726562 132.839844 C 320.265625 111.40625 307.851562 89.917969 299.300781 66.492188 C 297.8125 62.421875 296.558594 58.230469 294.261719 54.484375 C 293.480469 53.210938 292.804688 52.539062 290.945312 52.808594 C 284.703125 53.710938 278.355469 53.921875 272.140625 54.9375 C 261.753906 56.636719 251.242188 57.769531 241.402344 62.050781 C 233.144531 65.648438 225.824219 70.6875 218.460938 75.734375 C 215.058594 78.066406 211.292969 79.835938 208.332031 82.835938 C 203.207031 88.027344 198.492188 93.597656 192.992188 98.453125 C 188.628906 102.300781 188.570312 104.367188 191.078125 109.480469 C 191.601562 110.550781 192.191406 111.597656 192.832031 112.605469 C 198.339844 121.257812 203.015625 130.402344 206.339844 140.039062 C 212.511719 157.941406 222.148438 174.140625 230.632812 190.878906 C 237.058594 203.546875 244.484375 215.695312 248.851562 229.511719 C 249.355469 229.230469 249.761719 229.078125 250.074219 228.820312 C 254.277344 225.363281 258.386719 221.789062 262.675781 218.441406 C 269.332031 213.242188 277.269531 210.332031 284.695312 206.527344 C 292.910156 202.320312 300.675781 197.09375 309.539062 194.328125 C 318.453125 191.546875 327.21875 188.316406 336.277344 185.964844 C 342.042969 184.46875 347.652344 182.359375 353.289062 180.394531 C 357.253906 179.015625 357.328125 178.691406 355.09375 175.234375 Z M 205.449219 107.277344 C 204.832031 106.414062 205.699219 105.652344 206.347656 105.082031 C 216.332031 96.363281 225.492188 86.402344 237.859375 81.007812 C 249.265625 76.03125 261.144531 72.148438 273.300781 69.304688 C 275.054688 68.894531 276.988281 69.246094 278.839844 69.246094 C 278.839844 69.164062 278.839844 69.082031 278.839844 68.996094 C 280.253906 68.996094 281.679688 68.914062 283.085938 69.023438 C 284.175781 69.113281 285.777344 68.738281 285.785156 70.5625 C 285.796875 72.328125 284.15625 72.046875 283.097656 72.226562 C 281.820312 72.441406 280.488281 72.425781 279.183594 72.375 C 273.875 72.171875 268.855469 73.449219 263.894531 75.160156 C 257.539062 77.351562 251.160156 79.476562 244.789062 81.617188 C 235.871094 84.613281 228.234375 89.722656 221.363281 96.011719 C 217.097656 99.917969 212.511719 103.40625 207.9375 106.917969 C 207.203125 107.480469 206.285156 108.449219 205.449219 107.277344 Z M 214.289062 125.324219 C 213.582031 125.609375 212.453125 125.882812 211.988281 124.867188 C 211.546875 123.902344 212.554688 123.65625 213.152344 123.230469 C 215.824219 121.332031 218.085938 118.992188 220.433594 116.71875 C 231.046875 106.441406 243.25 98.6875 257.355469 94.09375 C 260.96875 92.914062 264.570312 91.757812 268.011719 90.101562 C 275.195312 86.640625 283.90625 84.714844 293.242188 84.417969 C 294.003906 84.460938 295.238281 84.46875 295.507812 85.8125 C 295.839844 87.464844 294.441406 87.871094 293.296875 88.039062 C 290.078125 88.519531 286.84375 88.921875 283.601562 89.179688 C 275.460938 89.824219 268.824219 94.738281 261.238281 96.945312 C 245.574219 101.5 232.007812 109.601562 220.441406 121.105469 C 218.667969 122.871094 216.632812 124.378906 214.289062 125.324219 Z M 226.28125 142.382812 C 225.527344 143.515625 224.46875 145.15625 222.945312 144.070312 C 221.160156 142.800781 222.722656 141.507812 223.542969 140.226562 C 232.441406 126.34375 246.378906 118.804688 260.238281 111.273438 C 270.925781 105.464844 282.320312 101.304688 294.109375 98.3125 C 296.925781 97.601562 299.878906 97.40625 302.394531 96.589844 C 303.558594 96.664062 304.527344 96.53125 304.734375 97.734375 C 304.910156 98.726562 304.460938 99.445312 303.597656 99.859375 C 302.914062 100.183594 302.183594 100.574219 301.457031 100.613281 C 295.078125 100.976562 289.34375 103.820312 283.269531 105.339844 C 275.429688 107.296875 268.4375 111.453125 261.210938 114.902344 C 247.546875 121.425781 234.921875 129.402344 226.28125 142.382812 Z M 231.113281 159.628906 C 229.90625 158.632812 231.925781 157.0625 232.6875 155.839844 C 238.140625 147.097656 246.445312 141.308594 254.605469 135.589844 C 261.4375 130.800781 268.878906 126.828125 276.285156 122.9375 C 285.683594 117.996094 296.214844 117.191406 306.46875 115.496094 C 307.796875 115.234375 309.398438 114.855469 309.660156 116.648438 C 309.925781 118.472656 308.289062 118.761719 306.820312 119.011719 C 297.195312 120.644531 287.148438 121.304688 278.566406 126.230469 C 267.660156 132.488281 256.167969 137.90625 246.738281 146.566406 C 242.972656 150.027344 238.835938 153.078125 235.796875 157.269531 C 235.671875 157.445312 235.523438 157.609375 235.367188 157.761719 C 234.136719 158.949219 232.394531 160.6875 231.113281 159.628906 Z M 236.179688 177.132812 C 235.464844 177.023438 234.9375 176.671875 234.75 175.988281 C 234.570312 175.324219 234.722656 174.824219 235.4375 174.394531 C 249.679688 165.792969 262.546875 155.113281 277.074219 146.925781 C 284.023438 143.011719 291.445312 140.21875 298.8125 137.328125 C 303.484375 135.496094 308.6875 136.160156 313.59375 135.277344 C 315.300781 134.972656 317.023438 134.757812 318.648438 134.519531 C 319.890625 134.617188 321.441406 134.246094 321.59375 135.914062 C 321.726562 137.382812 320.433594 137.8125 319.171875 138.007812 C 315.527344 138.566406 311.902344 139.445312 308.238281 139.652344 C 297.886719 140.234375 289.019531 145.078125 280.320312 149.800781 C 270.023438 155.390625 260.007812 161.582031 250.777344 168.945312 C 247.3125 171.710938 243.320312 173.816406 239.5625 176.214844 C 238.535156 176.867188 237.449219 177.328125 236.179688 177.132812 Z M 246.175781 191.476562 C 245.457031 191.964844 244.761719 192.492188 244.0625 193.007812 C 243.5 193.417969 242.925781 193.695312 242.335938 193.078125 C 241.777344 192.496094 241.894531 191.917969 242.40625 191.363281 C 243.140625 190.5625 243.835938 189.722656 244.609375 188.960938 C 256.28125 177.507812 269.847656 169.195312 285.332031 163.847656 C 294.648438 160.625 303.421875 155.964844 312.933594 153.175781 C 316.691406 152.070312 320.371094 150.789062 324.351562 150.84375 C 325.550781 150.902344 326.746094 150.945312 327.941406 151.015625 C 328.953125 151.070312 329.605469 151.625 329.660156 152.625 C 329.714844 153.671875 329.050781 154.152344 328.039062 154.265625 C 305.015625 156.859375 285.140625 168.097656 264.667969 177.59375 C 257.617188 180.863281 252.550781 187.117188 246.175781 191.476562 Z M 339.367188 164.070312 C 339.046875 165.675781 337.542969 165.699219 336.519531 165.738281 C 329.136719 166.03125 322.363281 168.871094 315.34375 170.652344 C 312.921875 171.265625 310.453125 171.867188 308.335938 173.222656 C 295.8125 181.226562 281.695312 185.945312 268.496094 192.558594 C 262.8125 195.410156 257.246094 198.265625 252.953125 203.089844 C 252.59375 203.492188 252.160156 203.84375 251.714844 204.148438 C 250.953125 204.667969 250.042969 205.023438 249.375 204.1875 C 248.785156 203.453125 248.996094 202.683594 249.71875 201.902344 C 253.484375 197.796875 257.402344 193.960938 262.496094 191.40625 C 272.695312 186.289062 283.21875 181.90625 293.621094 177.253906 C 295.207031 176.542969 296.910156 175.984375 298.320312 175.011719 C 309.382812 167.386719 322.171875 165.03125 335.019531 162.847656 C 336.082031 162.667969 337.191406 162.730469 338.277344 162.765625 C 339.050781 162.789062 339.449219 163.265625 339.367188 164.070312 Z M 339.367188 164.070312 " fill-opacity="1" fill-rule="nonzero"/></svg>